<svg xmlns="http://www.w3.org/2000/svg" viewBox="0 0 66 72">
  <rect width="66" height="72" fill="#080312"/>
  <!-- antennae y=0 -->
  <rect x="24" y="0" width="6" height="6" fill="#ffd60a"/>
  <rect x="42" y="0" width="6" height="6" fill="#ffd60a"/>
  <!-- head top y=6 -->
  <rect x="18" y="6" width="6" height="6" fill="#f3e8ff"/>
  <rect x="24" y="6" width="6" height="6" fill="#b883fa"/>
  <rect x="30" y="6" width="6" height="6" fill="#a56cf0"/>
  <rect x="36" y="6" width="6" height="6" fill="#b883fa"/>
  <rect x="42" y="6" width="6" height="6" fill="#f3e8ff"/>
  <!-- eyes y=12 -->
  <rect x="30" y="12" width="6" height="6" fill="#8a80b0"/>
  <rect x="36" y="12" width="6" height="6" fill="#8a80b0"/>
  <!-- head lower y=18 -->
  <rect x="24" y="18" width="6" height="6" fill="#f3e8ff"/>
  <rect x="30" y="18" width="6" height="6" fill="#f3e8ff"/>
  <rect x="36" y="18" width="6" height="6" fill="#f3e8ff"/>
  <rect x="42" y="18" width="6" height="6" fill="#f3e8ff"/>
  <!-- head lower y=24 -->
  <rect x="24" y="24" width="6" height="6" fill="#f3e8ff"/>
  <rect x="30" y="24" width="6" height="6" fill="#f3e8ff"/>
  <rect x="36" y="24" width="6" height="6" fill="#f3e8ff"/>
  <rect x="42" y="24" width="6" height="6" fill="#f3e8ff"/>
  <!-- arms/shoulders y=30 -->
  <rect x="12" y="30" width="6" height="6" fill="#9160ee"/>
  <rect x="18" y="30" width="6" height="6" fill="#9160ee"/>
  <rect x="24" y="30" width="6" height="6" fill="#9160ee"/>
  <rect x="30" y="30" width="6" height="6" fill="#9160ee"/>
  <rect x="36" y="30" width="6" height="6" fill="#9160ee"/>
  <rect x="42" y="30" width="6" height="6" fill="#9160ee"/>
  <rect x="48" y="30" width="6" height="6" fill="#9160ee"/>
  <!-- body y=36 -->
  <rect x="30" y="36" width="6" height="6" fill="#f3e8ff"/>
  <rect x="36" y="36" width="6" height="6" fill="#f3e8ff"/>
  <!-- body y=42 -->
  <rect x="30" y="42" width="6" height="6" fill="#f3e8ff"/>
  <rect x="36" y="42" width="6" height="6" fill="#f3e8ff"/>
  <!-- body y=48 -->
  <rect x="30" y="48" width="6" height="6" fill="#f3e8ff"/>
  <rect x="36" y="48" width="6" height="6" fill="#f3e8ff"/>
  <!-- legs/waist y=54 -->
  <rect x="12" y="54" width="6" height="6" fill="#9160ee"/>
  <rect x="18" y="54" width="6" height="6" fill="#9160ee"/>
  <rect x="24" y="54" width="6" height="6" fill="#9160ee"/>
  <rect x="30" y="54" width="6" height="6" fill="#9160ee"/>
  <rect x="36" y="54" width="6" height="6" fill="#9160ee"/>
  <rect x="42" y="54" width="6" height="6" fill="#9160ee"/>
  <rect x="48" y="54" width="6" height="6" fill="#9160ee"/>
  <!-- feet y=60 -->
  <rect x="6"  y="60" width="6" height="6" fill="#8a80b0"/>
  <rect x="12" y="60" width="6" height="6" fill="#8a80b0"/>
  <rect x="18" y="60" width="6" height="6" fill="#8a80b0"/>
  <rect x="24" y="60" width="6" height="6" fill="#8a80b0"/>
  <rect x="30" y="60" width="6" height="6" fill="#8a80b0"/>
  <rect x="36" y="60" width="6" height="6" fill="#8a80b0"/>
  <rect x="42" y="60" width="6" height="6" fill="#8a80b0"/>
  <rect x="48" y="60" width="6" height="6" fill="#8a80b0"/>
  <rect x="54" y="60" width="6" height="6" fill="#8a80b0"/>
  <!-- base y=66 -->
  <rect x="0"  y="66" width="6" height="6" fill="#7c3aed"/>
  <rect x="6"  y="66" width="6" height="6" fill="#7c3aed"/>
  <rect x="12" y="66" width="6" height="6" fill="#7c3aed"/>
  <rect x="18" y="66" width="6" height="6" fill="#7c3aed"/>
  <rect x="24" y="66" width="6" height="6" fill="#7c3aed"/>
  <rect x="30" y="66" width="6" height="6" fill="#7c3aed"/>
  <rect x="36" y="66" width="6" height="6" fill="#7c3aed"/>
  <rect x="42" y="66" width="6" height="6" fill="#7c3aed"/>
  <rect x="48" y="66" width="6" height="6" fill="#7c3aed"/>
  <rect x="54" y="66" width="6" height="6" fill="#7c3aed"/>
  <rect x="60" y="66" width="6" height="6" fill="#7c3aed"/>
</svg>
